# Two-cylinder background-suppression target
# Source coordinates use z = 0...6 mm
# Dr.TVAM size=6 and scale_and_center=true map z to -3...+3 mm
o two_cylinders
v 0.000000000 2.000000000 0.000000000
v -0.949999988 0.750000000 6.000000000
v 0.949999988 0.750000000 6.000000000
v 0.000000000 2.000000000 2.000000000
v 0.979444861 0.749421775 6.000000000
v 0.078519635 1.998458028 0.000000000
v 0.078519635 1.998458028 2.000000000
v 1.008844256 0.747687995 6.000000000
v -0.920555115 0.749421775 6.000000000
v 0.156918198 1.993834615 0.000000000
v 0.156918198 1.993834615 2.000000000
v 1.038153052 0.744801342 6.000000000
v -0.891155660 0.747687995 6.000000000
v 0.235074818 1.986136913 0.000000000
v 1.067325830 0.740766287 6.000000000
v 0.235074818 1.986136913 2.000000000
v -0.861846924 0.744801342 6.000000000
v 1.096317768 0.735588908 6.000000000
v 0.312868953 1.975376725 0.000000000
v 0.312868953 1.975376725 2.000000000
v 1.125084043 0.729277432 6.000000000
v -0.832674146 0.740766287 6.000000000
v 0.390180647 1.961570501 0.000000000
v 1.153580308 0.721841395 6.000000000
v 0.390180647 1.961570501 2.000000000
v -0.803682208 0.735588908 6.000000000
v 1.181762695 0.713292420 6.000000000
v 0.466890782 1.944739819 0.000000000
v 0.466890782 1.944739819 2.000000000
v 1.209587812 0.703643501 6.000000000
v -0.774915934 0.729277432 6.000000000
v 0.542880893 1.924910426 0.000000000
v 1.237012625 0.692909598 6.000000000
v 0.542880893 1.924910426 2.000000000
v 1.263994813 0.681107402 6.000000000
v -0.746419668 0.721841395 6.000000000
v 0.618034005 1.902113080 0.000000000
v -0.718237221 0.713292420 6.000000000
v 1.290492892 0.668254912 6.000000000
v 0.618034005 1.902113080 2.000000000
v 1.316465855 0.654371977 6.000000000
v 0.692234099 1.876382709 0.000000000
v 0.692234099 1.876382709 2.000000000
v -0.690412164 0.703643501 6.000000000
v 1.341873884 0.639480114 6.000000000
v 0.765366912 1.847759008 0.000000000
v 0.765366912 1.847759008 2.000000000
v 1.366677642 0.623602211 6.000000000
v -0.662987411 0.692909598 6.000000000
v 0.837319553 1.816286325 0.000000000
v 1.390838861 0.606762767 6.000000000
v 0.837319553 1.816286325 2.000000000
v 1.414320469 0.588987648 6.000000000
v -0.636005163 0.681107402 6.000000000
v 0.907981098 1.782013059 0.000000000
v 0.907981098 1.782013059 2.000000000
v 1.437085986 0.570304453 6.000000000
v -0.609507084 0.668254912 6.000000000
v 0.977242410 1.744992018 0.000000000
v 1.459100485 0.550741851 6.000000000
v 0.977242410 1.744992018 2.000000000
v -0.583534122 0.654371977 6.000000000
v 1.480329990 0.530330062 6.000000000
v 1.044997096 1.705280304 0.000000000
v 1.500741839 0.509100556 6.000000000
v 1.044997096 1.705280304 2.000000000
v -0.558126092 0.639480114 6.000000000
v 1.520304441 0.487086028 6.000000000
v 1.111140490 1.662939191 0.000000000
v 1.111140490 1.662939191 2.000000000
v 1.538987637 0.464320481 6.000000000
v -0.533322334 0.623602211 6.000000000
v 1.175570488 1.618034005 0.000000000
v -0.509161055 0.606762767 6.000000000
v 1.556762695 0.440838933 6.000000000
v 1.175570488 1.618034005 2.000000000
v 1.238187909 1.570633769 0.000000000
v 1.573602200 0.416677684 6.000000000
v -0.485679507 0.588987648 6.000000000
v 1.589480162 0.391873896 6.000000000
v 1.238187909 1.570633769 2.000000000
v 1.298896074 1.520811915 0.000000000
v -0.462913960 0.570304453 6.000000000
v 1.604372025 0.366465896 6.000000000
v 1.298896074 1.520811915 2.000000000
v 1.618254900 0.340492904 6.000000000
v 1.357601523 1.468644977 0.000000000
v -0.440899432 0.550741851 6.000000000
v 1.631107330 0.313994825 6.000000000
v 1.357601523 1.468644977 2.000000000
v 1.414213538 1.414213538 0.000000000
v -0.419669926 0.530330062 6.000000000
v 1.642909527 0.287012577 6.000000000
v 1.414213538 1.414213538 2.000000000
v 1.468644977 1.357601523 0.000000000
v 1.653643489 0.259587795 6.000000000
v -0.399258137 0.509100556 6.000000000
v 1.663292408 0.231762752 6.000000000
v 1.468644977 1.357601523 2.000000000
v 1.520811915 1.298896074 0.000000000
v 1.671841383 0.203580335 6.000000000
v -0.379695535 0.487086028 6.000000000
v 1.520811915 1.298896074 2.000000000
v 1.570633769 1.238187909 0.000000000
v 1.679277420 0.175084040 6.000000000
v -0.361012340 0.464320481 6.000000000
v 1.570633769 1.238187909 2.000000000
v 1.685588837 0.146317750 6.000000000
v 1.618034005 1.175570488 0.000000000
v 1.618034005 1.175570488 2.000000000
v 1.690766335 0.117325857 6.000000000
v -0.343237221 0.440838933 6.000000000
v 1.662939191 1.111140490 0.000000000
v 1.694801331 0.088153057 6.000000000
v 1.662939191 1.111140490 2.000000000
v 1.697687984 0.058844324 6.000000000
v -0.326397777 0.416677684 6.000000000
v 1.705280304 1.044997096 0.000000000
v 1.705280304 1.044997096 2.000000000
v 1.699421763 0.029444862 6.000000000
v -0.310519874 0.391873896 6.000000000
v 1.744992018 0.977242410 0.000000000
v 1.700000048 0.000000000 6.000000000
v 1.744992018 0.977242410 2.000000000
v -0.295628011 0.366465896 6.000000000
v 1.699421763 -0.029444862 6.000000000
v 1.782013059 0.907981098 0.000000000
v 1.697687984 -0.058844324 6.000000000
v -0.281745076 0.340492904 6.000000000
v 1.782013059 0.907981098 2.000000000
v 1.816286325 0.837319553 0.000000000
v 1.694801331 -0.088153057 6.000000000
v -0.268892586 0.313994825 6.000000000
v 1.816286325 0.837319553 2.000000000
v 1.690766335 -0.117325857 6.000000000
v 1.847759008 0.765366912 0.000000000
v -0.257090390 0.287012577 6.000000000
v 1.685588837 -0.146317750 6.000000000
v 1.847759008 0.765366912 2.000000000
v 1.876382709 0.692234099 0.000000000
v 1.679277420 -0.175084040 6.000000000
v 1.876382709 0.692234099 2.000000000
v -0.246356487 0.259587795 6.000000000
v 1.671841383 -0.203580335 6.000000000
v 1.902113080 0.618034005 0.000000000
v 1.902113080 0.618034005 2.000000000
v 1.663292408 -0.231762752 6.000000000
v -0.236707568 0.231762752 6.000000000
v 1.924910426 0.542880893 0.000000000
v 1.653643489 -0.259587795 6.000000000
v 1.924910426 0.542880893 2.000000000
v 1.642909527 -0.287012577 6.000000000
v -0.228158593 0.203580335 6.000000000
v 1.944739819 0.466890782 0.000000000
v 1.944739819 0.466890782 2.000000000
v 1.631107330 -0.313994825 6.000000000
v -0.220722556 0.175084040 6.000000000
v 1.961570501 0.390180647 0.000000000
v 1.618254900 -0.340492904 6.000000000
v 1.961570501 0.390180647 2.000000000
v 1.604372025 -0.366465896 6.000000000
v -0.214411080 0.146317750 6.000000000
v 1.975376725 0.312868953 0.000000000
v 1.975376725 0.312868953 2.000000000
v 1.589480162 -0.391873896 6.000000000
v -0.209233701 0.117325857 6.000000000
v 1.986136913 0.235074818 0.000000000
v 1.573602200 -0.416677684 6.000000000
v 1.986136913 0.235074818 2.000000000
v -0.205198646 0.088153057 6.000000000
v 1.556762695 -0.440838933 6.000000000
v 1.993834615 0.156918198 0.000000000
v 1.993834615 0.156918198 2.000000000
v 1.538987637 -0.464320481 6.000000000
v -0.202311993 0.058844324 6.000000000
v 1.998458028 0.078519635 0.000000000
v 1.520304441 -0.487086028 6.000000000
v 1.998458028 0.078519635 2.000000000
v 1.500741839 -0.509100556 6.000000000
v -0.200578213 0.029444862 6.000000000
v 2.000000000 0.000000000 0.000000000
v 2.000000000 0.000000000 2.000000000
v 1.480329990 -0.530330062 6.000000000
v -0.199999988 0.000000000 6.000000000
v 1.459100485 -0.550741851 6.000000000
v 1.998458028 -0.078519635 0.000000000
v 1.998458028 -0.078519635 2.000000000
v 1.437085986 -0.570304453 6.000000000
v -0.200578213 -0.029444862 6.000000000
v 1.993834615 -0.156918198 0.000000000
v 1.993834615 -0.156918198 2.000000000
v 1.414320469 -0.588987648 6.000000000
v -0.202311993 -0.058844324 6.000000000
v 1.390838861 -0.606762767 6.000000000
v 1.986136913 -0.235074818 0.000000000
v 1.986136913 -0.235074818 2.000000000
v -0.205198646 -0.088153057 6.000000000
v 1.366677642 -0.623602211 6.000000000
v 1.975376725 -0.312868953 0.000000000
v 1.975376725 -0.312868953 2.000000000
v 1.341873884 -0.639480114 6.000000000
v -0.209233701 -0.117325857 6.000000000
v 1.316465855 -0.654371977 6.000000000
v 1.961570501 -0.390180647 0.000000000
v -0.214411080 -0.146317750 6.000000000
v 1.961570501 -0.390180647 2.000000000
v 1.290492892 -0.668254912 6.000000000
v 1.944739819 -0.466890782 0.000000000
v 1.263994813 -0.681107402 6.000000000
v -0.220722556 -0.175084040 6.000000000
v 1.944739819 -0.466890782 2.000000000
v 1.924910426 -0.542880893 0.000000000
v 1.237012625 -0.692909598 6.000000000
v -0.228158593 -0.203580335 6.000000000
v 1.924910426 -0.542880893 2.000000000
v 1.209587812 -0.703643501 6.000000000
v 1.902113080 -0.618034005 0.000000000
v 1.181762695 -0.713292420 6.000000000
v -0.236707568 -0.231762752 6.000000000
v 1.902113080 -0.618034005 2.000000000
v 1.876382709 -0.692234099 0.000000000
v 1.153580308 -0.721841395 6.000000000
v 1.876382709 -0.692234099 2.000000000
v 1.125084043 -0.729277432 6.000000000
v -0.246356487 -0.259587795 6.000000000
v 1.847759008 -0.765366912 0.000000000
v 1.847759008 -0.765366912 2.000000000
v 1.096317768 -0.735588908 6.000000000
v -0.257090390 -0.287012577 6.000000000
v 1.816286325 -0.837319553 0.000000000
v 1.067325830 -0.740766287 6.000000000
v 1.816286325 -0.837319553 2.000000000
v 1.038153052 -0.744801342 6.000000000
v -0.268892586 -0.313994825 6.000000000
v 1.782013059 -0.907981098 0.000000000
v 1.008844256 -0.747687995 6.000000000
v -0.281745076 -0.340492904 6.000000000
v 1.782013059 -0.907981098 2.000000000
v 0.979444861 -0.749421775 6.000000000
v 1.744992018 -0.977242410 0.000000000
v 1.744992018 -0.977242410 2.000000000
v 0.949999988 -0.750000000 6.000000000
v -0.295628011 -0.366465896 6.000000000
v 1.705280304 -1.044997096 0.000000000
v 1.705280304 -1.044997096 2.000000000
v 0.920555115 -0.749421775 6.000000000
v -0.310519874 -0.391873896 6.000000000
v 0.891155660 -0.747687995 6.000000000
v 1.662939191 -1.111140490 0.000000000
v 1.662939191 -1.111140490 2.000000000
v 0.861846924 -0.744801342 6.000000000
v -0.326397777 -0.416677684 6.000000000
v 1.618034005 -1.175570488 0.000000000
v 0.832674146 -0.740766287 6.000000000
v 1.618034005 -1.175570488 2.000000000
v -0.343237221 -0.440838933 6.000000000
v 0.803682208 -0.735588908 6.000000000
v 1.570633769 -1.238187909 0.000000000
v -0.361012340 -0.464320481 6.000000000
v 0.774915934 -0.729277432 6.000000000
v 1.570633769 -1.238187909 2.000000000
v 1.520811915 -1.298896074 0.000000000
v 0.746419668 -0.721841395 6.000000000
v 1.520811915 -1.298896074 2.000000000
v -0.379695535 -0.487086028 6.000000000
v 0.718237221 -0.713292420 6.000000000
v 1.468644977 -1.357601523 0.000000000
v 1.468644977 -1.357601523 2.000000000
v -0.399258137 -0.509100556 6.000000000
v 0.690412164 -0.703643501 6.000000000
v 1.414213538 -1.414213538 0.000000000
v 0.662987411 -0.692909598 6.000000000
v -0.419669926 -0.530330062 6.000000000
v 1.414213538 -1.414213538 2.000000000
v 0.636005163 -0.681107402 6.000000000
v 1.357601523 -1.468644977 0.000000000
v 1.357601523 -1.468644977 2.000000000
v 0.609507084 -0.668254912 6.000000000
v -0.440899432 -0.550741851 6.000000000
v 1.298896074 -1.520811915 0.000000000
v 0.583534122 -0.654371977 6.000000000
v 1.298896074 -1.520811915 2.000000000
v -0.462913960 -0.570304453 6.000000000
v 1.238187909 -1.570633769 0.000000000
v 0.558126092 -0.639480114 6.000000000
v -0.485679507 -0.588987648 6.000000000
v 0.533322334 -0.623602211 6.000000000
v 1.238187909 -1.570633769 2.000000000
v 1.175570488 -1.618034005 0.000000000
v 0.509161055 -0.606762767 6.000000000
v 1.175570488 -1.618034005 2.000000000
v -0.509161055 -0.606762767 6.000000000
v 0.485679507 -0.588987648 6.000000000
v 1.111140490 -1.662939191 0.000000000
v -0.533322334 -0.623602211 6.000000000
v 0.462913960 -0.570304453 6.000000000
v 1.111140490 -1.662939191 2.000000000
v 1.044997096 -1.705280304 0.000000000
v -0.558126092 -0.639480114 6.000000000
v 0.440899432 -0.550741851 6.000000000
v 1.044997096 -1.705280304 2.000000000
v 0.977242410 -1.744992018 0.000000000
v 0.419669926 -0.530330062 6.000000000
v -0.583534122 -0.654371977 6.000000000
v 0.399258137 -0.509100556 6.000000000
v 0.977242410 -1.744992018 2.000000000
v 0.907981098 -1.782013059 0.000000000
v -0.609507084 -0.668254912 6.000000000
v 0.379695535 -0.487086028 6.000000000
v 0.907981098 -1.782013059 2.000000000
v 0.837319553 -1.816286325 0.000000000
v 0.361012340 -0.464320481 6.000000000
v -0.636005163 -0.681107402 6.000000000
v 0.837319553 -1.816286325 2.000000000
v 0.343237221 -0.440838933 6.000000000
v 0.765366912 -1.847759008 0.000000000
v -0.662987411 -0.692909598 6.000000000
v 0.326397777 -0.416677684 6.000000000
v 0.765366912 -1.847759008 2.000000000
v 0.692234099 -1.876382709 0.000000000
v 0.310519874 -0.391873896 6.000000000
v -0.690412164 -0.703643501 6.000000000
v 0.692234099 -1.876382709 2.000000000
v 0.295628011 -0.366465896 6.000000000
v 0.618034005 -1.902113080 0.000000000
v 0.281745076 -0.340492904 6.000000000
v -0.718237221 -0.713292420 6.000000000
v 0.618034005 -1.902113080 2.000000000
v 0.542880893 -1.924910426 0.000000000
v 0.268892586 -0.313994825 6.000000000
v 0.542880893 -1.924910426 2.000000000
v 0.257090390 -0.287012577 6.000000000
v -0.746419668 -0.721841395 6.000000000
v 0.466890782 -1.944739819 0.000000000
v 0.246356487 -0.259587795 6.000000000
v -0.774915934 -0.729277432 6.000000000
v 0.466890782 -1.944739819 2.000000000
v 0.390180647 -1.961570501 0.000000000
v 0.236707568 -0.231762752 6.000000000
v 0.390180647 -1.961570501 2.000000000
v 0.228158593 -0.203580335 6.000000000
v -0.803682208 -0.735588908 6.000000000
v 0.312868953 -1.975376725 0.000000000
v -0.832674146 -0.740766287 6.000000000
v 0.220722556 -0.175084040 6.000000000
v 0.312868953 -1.975376725 2.000000000
v 0.214411080 -0.146317750 6.000000000
v 0.235074818 -1.986136913 0.000000000
v -0.861846924 -0.744801342 6.000000000
v 0.235074818 -1.986136913 2.000000000
v 0.209233701 -0.117325857 6.000000000
v 0.156918198 -1.993834615 0.000000000
v 0.205198646 -0.088153057 6.000000000
v 0.156918198 -1.993834615 2.000000000
v -0.891155660 -0.747687995 6.000000000
v 0.078519635 -1.998458028 0.000000000
v 0.202311993 -0.058844324 6.000000000
v -0.920555115 -0.749421775 6.000000000
v 0.200578213 -0.029444862 6.000000000
v 0.078519635 -1.998458028 2.000000000
v 0.000000000 -2.000000000 0.000000000
v -0.949999988 -0.750000000 6.000000000
v 0.199999988 0.000000000 6.000000000
v 0.000000000 -2.000000000 2.000000000
v -0.078519635 -1.998458028 0.000000000
v 0.200578213 0.029444862 6.000000000
v -0.078519635 -1.998458028 2.000000000
v 0.202311993 0.058844324 6.000000000
v -0.979444861 -0.749421775 6.000000000
v -0.156918198 -1.993834615 0.000000000
v -0.156918198 -1.993834615 2.000000000
v 0.205198646 0.088153057 6.000000000
v -1.008844256 -0.747687995 6.000000000
v -0.235074818 -1.986136913 0.000000000
v 0.209233701 0.117325857 6.000000000
v -0.235074818 -1.986136913 2.000000000
v -1.038153052 -0.744801342 6.000000000
v 0.214411080 0.146317750 6.000000000
v -0.312868953 -1.975376725 0.000000000
v -1.067325830 -0.740766287 6.000000000
v 0.220722556 0.175084040 6.000000000
v -0.312868953 -1.975376725 2.000000000
v -0.390180647 -1.961570501 0.000000000
v 0.228158593 0.203580335 6.000000000
v -1.096317768 -0.735588908 6.000000000
v -0.390180647 -1.961570501 2.000000000
v 0.236707568 0.231762752 6.000000000
v -0.466890782 -1.944739819 0.000000000
v -1.125084043 -0.729277432 6.000000000
v 0.246356487 0.259587795 6.000000000
v -0.466890782 -1.944739819 2.000000000
v -0.542880893 -1.924910426 0.000000000
v 0.257090390 0.287012577 6.000000000
v -1.153580308 -0.721841395 6.000000000
v -0.542880893 -1.924910426 2.000000000
v 0.268892586 0.313994825 6.000000000
v -0.618034005 -1.902113080 0.000000000
v -1.181762695 -0.713292420 6.000000000
v 0.281745076 0.340492904 6.000000000
v -0.618034005 -1.902113080 2.000000000
v -0.692234099 -1.876382709 0.000000000
v 0.295628011 0.366465896 6.000000000
v -1.209587812 -0.703643501 6.000000000
v -0.692234099 -1.876382709 2.000000000
v 0.310519874 0.391873896 6.000000000
v -0.765366912 -1.847759008 0.000000000
v -1.237012625 -0.692909598 6.000000000
v 0.326397777 0.416677684 6.000000000
v -0.765366912 -1.847759008 2.000000000
v 0.343237221 0.440838933 6.000000000
v -0.837319553 -1.816286325 0.000000000
v -1.263994813 -0.681107402 6.000000000
v 0.361012340 0.464320481 6.000000000
v -0.837319553 -1.816286325 2.000000000
v -0.907981098 -1.782013059 0.000000000
v -1.290492892 -0.668254912 6.000000000
v 0.379695535 0.487086028 6.000000000
v -0.907981098 -1.782013059 2.000000000
v -0.977242410 -1.744992018 0.000000000
v 0.399258137 0.509100556 6.000000000
v -1.316465855 -0.654371977 6.000000000
v 0.419669926 0.530330062 6.000000000
v -0.977242410 -1.744992018 2.000000000
v -1.044997096 -1.705280304 0.000000000
v 0.440899432 0.550741851 6.000000000
v -1.341873884 -0.639480114 6.000000000
v -1.044997096 -1.705280304 2.000000000
v 0.462913960 0.570304453 6.000000000
v -1.111140490 -1.662939191 0.000000000
v -1.111140490 -1.662939191 2.000000000
v -1.366677642 -0.623602211 6.000000000
v 0.485679507 0.588987648 6.000000000
v -1.175570488 -1.618034005 0.000000000
v 0.509161055 0.606762767 6.000000000
v -1.175570488 -1.618034005 2.000000000
v -1.390838861 -0.606762767 6.000000000
v -1.238187909 -1.570633769 0.000000000
v 0.533322334 0.623602211 6.000000000
v -1.238187909 -1.570633769 2.000000000
v -1.414320469 -0.588987648 6.000000000
v 0.558126092 0.639480114 6.000000000
v -1.298896074 -1.520811915 0.000000000
v -1.298896074 -1.520811915 2.000000000
v 0.583534122 0.654371977 6.000000000
v -1.437085986 -0.570304453 6.000000000
v 0.609507084 0.668254912 6.000000000
v -1.357601523 -1.468644977 0.000000000
v -1.357601523 -1.468644977 2.000000000
v 0.636005163 0.681107402 6.000000000
v -1.459100485 -0.550741851 6.000000000
v -1.414213538 -1.414213538 0.000000000
v 0.662987411 0.692909598 6.000000000
v -1.414213538 -1.414213538 2.000000000
v -1.480329990 -0.530330062 6.000000000
v 0.690412164 0.703643501 6.000000000
v -1.468644977 -1.357601523 0.000000000
v -1.468644977 -1.357601523 2.000000000
v -1.500741839 -0.509100556 6.000000000
v 0.718237221 0.713292420 6.000000000
v -1.520811915 -1.298896074 0.000000000
v -1.520811915 -1.298896074 2.000000000
v 0.746419668 0.721841395 6.000000000
v -1.520304441 -0.487086028 6.000000000
v -1.570633769 -1.238187909 0.000000000
v 0.774915934 0.729277432 6.000000000
v -1.570633769 -1.238187909 2.000000000
v 0.803682208 0.735588908 6.000000000
v -1.538987637 -0.464320481 6.000000000
v -1.618034005 -1.175570488 0.000000000
v -1.618034005 -1.175570488 2.000000000
v 0.832674146 0.740766287 6.000000000
v -1.556762695 -0.440838933 6.000000000
v -1.662939191 -1.111140490 0.000000000
v 0.861846924 0.744801342 6.000000000
v -1.662939191 -1.111140490 2.000000000
v -1.573602200 -0.416677684 6.000000000
v 0.891155660 0.747687995 6.000000000
v -1.705280304 -1.044997096 0.000000000
v 0.920555115 0.749421775 6.000000000
v -1.705280304 -1.044997096 2.000000000
v -1.589480162 -0.391873896 6.000000000
v -1.744992018 -0.977242410 0.000000000
v -1.744992018 -0.977242410 2.000000000
v -1.604372025 -0.366465896 6.000000000
v -1.782013059 -0.907981098 0.000000000
v -1.782013059 -0.907981098 2.000000000
v -1.618254900 -0.340492904 6.000000000
v -1.816286325 -0.837319553 0.000000000
v -1.816286325 -0.837319553 2.000000000
v -1.631107330 -0.313994825 6.000000000
v -1.847759008 -0.765366912 0.000000000
v -1.847759008 -0.765366912 2.000000000
v -1.642909527 -0.287012577 6.000000000
v -1.876382709 -0.692234099 0.000000000
v -1.876382709 -0.692234099 2.000000000
v -1.653643489 -0.259587795 6.000000000
v -1.902113080 -0.618034005 0.000000000
v -1.902113080 -0.618034005 2.000000000
v -1.663292408 -0.231762752 6.000000000
v -1.924910426 -0.542880893 0.000000000
v -1.924910426 -0.542880893 2.000000000
v -1.671841383 -0.203580335 6.000000000
v -1.944739819 -0.466890782 0.000000000
v -1.944739819 -0.466890782 2.000000000
v -1.679277420 -0.175084040 6.000000000
v -1.961570501 -0.390180647 0.000000000
v -1.685588837 -0.146317750 6.000000000
v -1.961570501 -0.390180647 2.000000000
v -1.975376725 -0.312868953 0.000000000
v -1.690766335 -0.117325857 6.000000000
v -1.975376725 -0.312868953 2.000000000
v -1.986136913 -0.235074818 0.000000000
v -1.694801331 -0.088153057 6.000000000
v -1.986136913 -0.235074818 2.000000000
v -1.993834615 -0.156918198 0.000000000
v -1.697687984 -0.058844324 6.000000000
v -1.993834615 -0.156918198 2.000000000
v -1.998458028 -0.078519635 0.000000000
v -1.998458028 -0.078519635 2.000000000
v -1.699421763 -0.029444862 6.000000000
v -2.000000000 0.000000000 0.000000000
v -2.000000000 0.000000000 2.000000000
v -1.700000048 0.000000000 6.000000000
v -1.998458028 0.078519635 0.000000000
v -1.998458028 0.078519635 2.000000000
v -1.699421763 0.029444862 6.000000000
v -1.993834615 0.156918198 0.000000000
v -1.993834615 0.156918198 2.000000000
v -1.697687984 0.058844324 6.000000000
v -1.986136913 0.235074818 0.000000000
v -1.986136913 0.235074818 2.000000000
v -1.694801331 0.088153057 6.000000000
v -1.975376725 0.312868953 0.000000000
v -1.690766335 0.117325857 6.000000000
v -1.975376725 0.312868953 2.000000000
v -1.961570501 0.390180647 0.000000000
v -1.961570501 0.390180647 2.000000000
v -1.685588837 0.146317750 6.000000000
v -1.944739819 0.466890782 0.000000000
v -1.944739819 0.466890782 2.000000000
v -1.679277420 0.175084040 6.000000000
v -1.924910426 0.542880893 0.000000000
v -1.924910426 0.542880893 2.000000000
v -1.671841383 0.203580335 6.000000000
v -1.902113080 0.618034005 0.000000000
v -1.663292408 0.231762752 6.000000000
v -1.902113080 0.618034005 2.000000000
v -1.876382709 0.692234099 0.000000000
v -1.653643489 0.259587795 6.000000000
v -1.876382709 0.692234099 2.000000000
v -1.847759008 0.765366912 0.000000000
v -1.642909527 0.287012577 6.000000000
v -1.847759008 0.765366912 2.000000000
v -1.816286325 0.837319553 0.000000000
v -1.816286325 0.837319553 2.000000000
v -1.631107330 0.313994825 6.000000000
v -1.782013059 0.907981098 0.000000000
v -1.618254900 0.340492904 6.000000000
v -1.782013059 0.907981098 2.000000000
v -1.744992018 0.977242410 0.000000000
v -1.744992018 0.977242410 2.000000000
v -1.604372025 0.366465896 6.000000000
v -1.705280304 1.044997096 0.000000000
v -1.589480162 0.391873896 6.000000000
v -1.705280304 1.044997096 2.000000000
v -1.662939191 1.111140490 0.000000000
v -1.662939191 1.111140490 2.000000000
v -1.573602200 0.416677684 6.000000000
v -1.618034005 1.175570488 0.000000000
v -1.556762695 0.440838933 6.000000000
v -1.618034005 1.175570488 2.000000000
v -1.570633769 1.238187909 0.000000000
v -1.538987637 0.464320481 6.000000000
v -1.570633769 1.238187909 2.000000000
v -1.520811915 1.298896074 0.000000000
v -1.520304441 0.487086028 6.000000000
v -1.520811915 1.298896074 2.000000000
v -1.468644977 1.357601523 0.000000000
v -1.500741839 0.509100556 6.000000000
v -1.468644977 1.357601523 2.000000000
v -1.414213538 1.414213538 0.000000000
v -1.480329990 0.530330062 6.000000000
v -1.414213538 1.414213538 2.000000000
v -1.357601523 1.468644977 0.000000000
v -1.459100485 0.550741851 6.000000000
v -1.357601523 1.468644977 2.000000000
v -1.298896074 1.520811915 0.000000000
v -1.298896074 1.520811915 2.000000000
v -1.437085986 0.570304453 6.000000000
v -1.238187909 1.570633769 0.000000000
v -1.238187909 1.570633769 2.000000000
v -1.414320469 0.588987648 6.000000000
v -1.175570488 1.618034005 0.000000000
v -1.390838861 0.606762767 6.000000000
v -1.175570488 1.618034005 2.000000000
v -1.111140490 1.662939191 0.000000000
v -1.111140490 1.662939191 2.000000000
v -1.366677642 0.623602211 6.000000000
v -1.044997096 1.705280304 0.000000000
v -1.044997096 1.705280304 2.000000000
v -1.341873884 0.639480114 6.000000000
v -0.977242410 1.744992018 0.000000000
v -0.977242410 1.744992018 2.000000000
v -1.316465855 0.654371977 6.000000000
v -0.907981098 1.782013059 0.000000000
v -0.907981098 1.782013059 2.000000000
v -1.290492892 0.668254912 6.000000000
v -0.837319553 1.816286325 0.000000000
v -0.837319553 1.816286325 2.000000000
v -1.263994813 0.681107402 6.000000000
v -0.765366912 1.847759008 0.000000000
v -1.237012625 0.692909598 6.000000000
v -0.765366912 1.847759008 2.000000000
v -0.692234099 1.876382709 0.000000000
v -1.209587812 0.703643501 6.000000000
v -0.692234099 1.876382709 2.000000000
v -0.618034005 1.902113080 0.000000000
v -0.618034005 1.902113080 2.000000000
v -1.181762695 0.713292420 6.000000000
v -0.542880893 1.924910426 0.000000000
v -0.542880893 1.924910426 2.000000000
v -1.153580308 0.721841395 6.000000000
v -0.466890782 1.944739819 0.000000000
v -0.466890782 1.944739819 2.000000000
v -1.125084043 0.729277432 6.000000000
v -0.390180647 1.961570501 0.000000000
v -1.096317768 0.735588908 6.000000000
v -0.390180647 1.961570501 2.000000000
v -0.312868953 1.975376725 0.000000000
v -0.312868953 1.975376725 2.000000000
v -1.067325830 0.740766287 6.000000000
v -0.235074818 1.986136913 0.000000000
v -0.235074818 1.986136913 2.000000000
v -1.038153052 0.744801342 6.000000000
v -0.156918198 1.993834615 0.000000000
v -1.008844256 0.747687995 6.000000000
v -0.156918198 1.993834615 2.000000000
v -0.078519635 1.998458028 0.000000000
v -0.078519635 1.998458028 2.000000000
v -0.979444861 0.749421775 6.000000000
v -1.700000048 0.000000000 2.000000000
v -1.697687984 -0.058844324 2.000000000
v -1.699421763 -0.029444862 2.000000000
v -1.699421763 0.029444862 2.000000000
v -1.690766335 -0.117325857 2.000000000
v -1.694801331 -0.088153057 2.000000000
v -1.694801331 0.088153057 2.000000000
v -1.685588837 -0.146317750 2.000000000
v -1.697687984 0.058844324 2.000000000
v -1.671841383 -0.203580335 2.000000000
v -1.679277420 -0.175084040 2.000000000
v -1.642909527 -0.287012577 2.000000000
v -1.653643489 -0.259587795 2.000000000
v -1.663292408 -0.231762752 2.000000000
v -1.618254900 -0.340492904 2.000000000
v -1.589480162 -0.391873896 2.000000000
v -1.573602200 -0.416677684 2.000000000
v -1.604372025 -0.366465896 2.000000000
v -1.631107330 -0.313994825 2.000000000
v -1.690766335 0.117325857 2.000000000
v -1.685588837 0.146317750 2.000000000
v -1.671841383 0.203580335 2.000000000
v -1.679277420 0.175084040 2.000000000
v -1.653643489 0.259587795 2.000000000
v -1.618254900 0.340492904 2.000000000
v -1.631107330 0.313994825 2.000000000
v -1.642909527 0.287012577 2.000000000
v -1.663292408 0.231762752 2.000000000
v -1.589480162 0.391873896 2.000000000
v -1.573602200 0.416677684 2.000000000
v -1.538987637 0.464320481 2.000000000
v -1.520304441 -0.487086028 2.000000000
v -1.538987637 -0.464320481 2.000000000
v -1.520304441 0.487086028 2.000000000
v -1.556762695 -0.440838933 2.000000000
v -1.556762695 0.440838933 2.000000000
v -1.604372025 0.366465896 2.000000000
v -1.459100485 0.550741851 2.000000000
v -1.480329990 -0.530330062 2.000000000
v -1.480329990 0.530330062 2.000000000
v -1.437085986 -0.570304453 2.000000000
v -1.414320469 -0.588987648 2.000000000
v -1.414320469 0.588987648 2.000000000
v -1.459100485 -0.550741851 2.000000000
v -1.437085986 0.570304453 2.000000000
v -1.366677642 0.623602211 2.000000000
v -1.341873884 -0.639480114 2.000000000
v -1.366677642 -0.623602211 2.000000000
v -1.341873884 0.639480114 2.000000000
v -1.316465855 -0.654371977 2.000000000
v -1.263994813 -0.681107402 2.000000000
v -1.290492892 -0.668254912 2.000000000
v -1.290492892 0.668254912 2.000000000
v -1.316465855 0.654371977 2.000000000
v -1.390838861 -0.606762767 2.000000000
v -1.390838861 0.606762767 2.000000000
v -1.500741839 -0.509100556 2.000000000
v -1.500741839 0.509100556 2.000000000
v -1.263994813 0.681107402 2.000000000
v -1.237012625 0.692909598 2.000000000
v -1.209587812 -0.703643501 2.000000000
v -1.237012625 -0.692909598 2.000000000
v -1.209587812 0.703643501 2.000000000
v -1.153580308 -0.721841395 2.000000000
v -1.153580308 0.721841395 2.000000000
v -1.181762695 -0.713292420 2.000000000
v -1.181762695 0.713292420 2.000000000
v -1.096317768 0.735588908 2.000000000
v -1.067325830 -0.740766287 2.000000000
v -1.096317768 -0.735588908 2.000000000
v -1.067325830 0.740766287 2.000000000
v -0.979444861 -0.749421775 2.000000000
v -1.008844256 -0.747687995 2.000000000
v -1.008844256 0.747687995 2.000000000
v -1.038153052 -0.744801342 2.000000000
v -1.038153052 0.744801342 2.000000000
v -1.125084043 -0.729277432 2.000000000
v -1.125084043 0.729277432 2.000000000
v -0.920555115 0.749421775 2.000000000
v -0.949999988 0.750000000 2.000000000
v -0.861846924 0.744801342 2.000000000
v -0.891155660 0.747687995 2.000000000
v -0.774915934 0.729277432 2.000000000
v -0.803682208 0.735588908 2.000000000
v -0.690412164 0.703643501 2.000000000
v -0.718237221 0.713292420 2.000000000
v -0.746419668 0.721841395 2.000000000
v -0.832674146 0.740766287 2.000000000
v -0.636005163 0.681107402 2.000000000
v -0.558126092 0.639480114 2.000000000
v -0.583534122 0.654371977 2.000000000
v -0.609507084 0.668254912 2.000000000
v -0.509161055 0.606762767 2.000000000
v -0.462913960 0.570304453 2.000000000
v -0.440899432 0.550741851 2.000000000
v -0.485679507 0.588987648 2.000000000
v -0.533322334 0.623602211 2.000000000
v -0.662987411 0.692909598 2.000000000
v -0.979444861 0.749421775 2.000000000
v -0.949999988 -0.750000000 2.000000000
v -0.920555115 -0.749421775 2.000000000
v -0.891155660 -0.747687995 2.000000000
v -0.861846924 -0.744801342 2.000000000
v -0.803682208 -0.735588908 2.000000000
v -0.832674146 -0.740766287 2.000000000
v -0.774915934 -0.729277432 2.000000000
v -0.746419668 -0.721841395 2.000000000
v -0.690412164 -0.703643501 2.000000000
v -0.718237221 -0.713292420 2.000000000
v -0.636005163 -0.681107402 2.000000000
v -0.583534122 -0.654371977 2.000000000
v -0.609507084 -0.668254912 2.000000000
v -0.662987411 -0.692909598 2.000000000
v -0.558126092 -0.639480114 2.000000000
v -0.533322334 -0.623602211 2.000000000
v -0.485679507 -0.588987648 2.000000000
v -0.509161055 -0.606762767 2.000000000
v -0.440899432 -0.550741851 2.000000000
v -0.419669926 0.530330062 2.000000000
v -0.462913960 -0.570304453 2.000000000
v -0.399258137 -0.509100556 2.000000000
v -0.379695535 0.487086028 2.000000000
v -0.361012340 -0.464320481 2.000000000
v -0.343237221 0.440838933 2.000000000
v -0.379695535 -0.487086028 2.000000000
v -0.361012340 0.464320481 2.000000000
v -0.419669926 -0.530330062 2.000000000
v -0.399258137 0.509100556 2.000000000
v -0.326397777 -0.416677684 2.000000000
v -0.310519874 0.391873896 2.000000000
v -0.295628011 -0.366465896 2.000000000
v -0.281745076 0.340492904 2.000000000
v -0.310519874 -0.391873896 2.000000000
v -0.295628011 0.366465896 2.000000000
v -0.268892586 -0.313994825 2.000000000
v -0.257090390 0.287012577 2.000000000
v -0.246356487 -0.259587795 2.000000000
v -0.236707568 0.231762752 2.000000000
v -0.257090390 -0.287012577 2.000000000
v -0.246356487 0.259587795 2.000000000
v -0.281745076 -0.340492904 2.000000000
v -0.268892586 0.313994825 2.000000000
v -0.228158593 -0.203580335 2.000000000
v -0.220722556 0.175084040 2.000000000
v -0.214411080 -0.146317750 2.000000000
v -0.209233701 0.117325857 2.000000000
v -0.220722556 -0.175084040 2.000000000
v -0.214411080 0.146317750 2.000000000
v -0.205198646 -0.088153057 2.000000000
v -0.202311993 0.058844324 2.000000000
v -0.199999988 0.000000000 2.000000000
v -0.200578213 -0.029444862 2.000000000
v -0.200578213 0.029444862 2.000000000
v -0.202311993 -0.058844324 2.000000000
v -0.205198646 0.088153057 2.000000000
v -0.209233701 -0.117325857 2.000000000
v -0.228158593 0.203580335 2.000000000
v -0.236707568 -0.231762752 2.000000000
v -0.326397777 0.416677684 2.000000000
v -0.343237221 -0.440838933 2.000000000
v 1.631107330 0.313994825 2.000000000
v 1.618254900 0.340492904 2.000000000
v 1.642909527 -0.287012577 2.000000000
v 1.642909527 0.287012577 2.000000000
v 1.671841383 -0.203580335 2.000000000
v 1.671841383 0.203580335 2.000000000
v 1.663292408 -0.231762752 2.000000000
v 1.663292408 0.231762752 2.000000000
v 1.653643489 -0.259587795 2.000000000
v 1.653643489 0.259587795 2.000000000
v 1.690766335 -0.117325857 2.000000000
v 1.690766335 0.117325857 2.000000000
v 1.685588837 -0.146317750 2.000000000
v 1.685588837 0.146317750 2.000000000
v 1.697687984 0.058844324 2.000000000
v 1.700000048 0.000000000 2.000000000
v 1.699421763 -0.029444862 2.000000000
v 1.699421763 0.029444862 2.000000000
v 1.697687984 -0.058844324 2.000000000
v 1.694801331 0.088153057 2.000000000
v 1.679277420 -0.175084040 2.000000000
v 1.694801331 -0.088153057 2.000000000
v 1.679277420 0.175084040 2.000000000
v 0.399258137 0.509100556 2.000000000
v 0.440899432 0.550741851 2.000000000
v 0.419669926 0.530330062 2.000000000
v 0.485679507 0.588987648 2.000000000
v 0.533322334 0.623602211 2.000000000
v 0.509161055 0.606762767 2.000000000
v 0.462913960 0.570304453 2.000000000
v 0.558126092 0.639480114 2.000000000
v 0.583534122 0.654371977 2.000000000
v 0.636005163 0.681107402 2.000000000
v 0.609507084 0.668254912 2.000000000
v 0.690412164 0.703643501 2.000000000
v 0.774915934 0.729277432 2.000000000
v 0.746419668 0.721841395 2.000000000
v 0.718237221 0.713292420 2.000000000
v 0.662987411 0.692909598 2.000000000
v 0.832674146 0.740766287 2.000000000
v 0.891155660 0.747687995 2.000000000
v 0.861846924 0.744801342 2.000000000
v 0.949999988 0.750000000 2.000000000
v 1.008844256 0.747687995 2.000000000
v 0.979444861 0.749421775 2.000000000
v 0.920555115 0.749421775 2.000000000
v 1.067325830 0.740766287 2.000000000
v 1.153580308 0.721841395 2.000000000
v 1.125084043 0.729277432 2.000000000
v 1.096317768 0.735588908 2.000000000
v 1.209587812 0.703643501 2.000000000
v 1.263994813 0.681107402 2.000000000
v 1.237012625 0.692909598 2.000000000
v 1.181762695 0.713292420 2.000000000
v 1.038153052 0.744801342 2.000000000
v 0.803682208 0.735588908 2.000000000
v 1.316465855 -0.654371977 2.000000000
v 1.316465855 0.654371977 2.000000000
v 1.366677642 -0.623602211 2.000000000
v 1.366677642 0.623602211 2.000000000
v 1.341873884 -0.639480114 2.000000000
v 1.341873884 0.639480114 2.000000000
v 1.437085986 0.570304453 2.000000000
v 1.414320469 -0.588987648 2.000000000
v 1.414320469 0.588987648 2.000000000
v 1.480329990 -0.530330062 2.000000000
v 1.459100485 -0.550741851 2.000000000
v 1.480329990 0.530330062 2.000000000
v 1.437085986 -0.570304453 2.000000000
v 1.459100485 0.550741851 2.000000000
v 1.390838861 -0.606762767 2.000000000
v 1.390838861 0.606762767 2.000000000
v 1.520304441 -0.487086028 2.000000000
v 1.520304441 0.487086028 2.000000000
v 1.556762695 0.440838933 2.000000000
v 1.556762695 -0.440838933 2.000000000
v 1.538987637 0.464320481 2.000000000
v 1.538987637 -0.464320481 2.000000000
v 1.500741839 0.509100556 2.000000000
v 1.589480162 -0.391873896 2.000000000
v 1.589480162 0.391873896 2.000000000
v 1.631107330 -0.313994825 2.000000000
v 1.618254900 -0.340492904 2.000000000
v 1.573602200 -0.416677684 2.000000000
v 1.604372025 -0.366465896 2.000000000
v 1.604372025 0.366465896 2.000000000
v 1.500741839 -0.509100556 2.000000000
v 1.573602200 0.416677684 2.000000000
v 1.290492892 0.668254912 2.000000000
v 0.202311993 0.058844324 2.000000000
v 0.205198646 0.088153057 2.000000000
v 0.209233701 0.117325857 2.000000000
v 0.214411080 0.146317750 2.000000000
v 0.220722556 0.175084040 2.000000000
v 0.228158593 0.203580335 2.000000000
v 0.236707568 0.231762752 2.000000000
v 0.257090390 0.287012577 2.000000000
v 0.281745076 0.340492904 2.000000000
v 0.268892586 0.313994825 2.000000000
v 0.246356487 0.259587795 2.000000000
v 0.326397777 0.416677684 2.000000000
v 0.310519874 0.391873896 2.000000000
v 0.379695535 0.487086028 2.000000000
v 0.361012340 0.464320481 2.000000000
v 0.343237221 0.440838933 2.000000000
v 1.209587812 -0.703643501 2.000000000
v 1.181762695 -0.713292420 2.000000000
v 1.290492892 -0.668254912 2.000000000
v 1.237012625 -0.692909598 2.000000000
v 1.263994813 -0.681107402 2.000000000
v 0.295628011 0.366465896 2.000000000
v 0.200578213 0.029444862 2.000000000
v 1.153580308 -0.721841395 2.000000000
v 0.199999988 0.000000000 2.000000000
v 0.200578213 -0.029444862 2.000000000
v 0.202311993 -0.058844324 2.000000000
v 1.125084043 -0.729277432 2.000000000
v 0.205198646 -0.088153057 2.000000000
v 0.209233701 -0.117325857 2.000000000
v 0.214411080 -0.146317750 2.000000000
v 1.096317768 -0.735588908 2.000000000
v 0.558126092 -0.639480114 2.000000000
v 0.609507084 -0.668254912 2.000000000
v 0.583534122 -0.654371977 2.000000000
v 0.662987411 -0.692909598 2.000000000
v 0.718237221 -0.713292420 2.000000000
v 0.746419668 -0.721841395 2.000000000
v 0.690412164 -0.703643501 2.000000000
v 0.636005163 -0.681107402 2.000000000
v 0.509161055 -0.606762767 2.000000000
v 0.533322334 -0.623602211 2.000000000
v 0.485679507 -0.588987648 2.000000000
v 0.803682208 -0.735588908 2.000000000
v 0.774915934 -0.729277432 2.000000000
v 0.223917544 -0.187327832 2.000000000
v 0.220722556 -0.175084040 2.000000000
v 0.228158593 -0.203580335 2.000000000
v 0.440899432 -0.550741851 2.000000000
v 0.462913960 -0.570304453 2.000000000
v 0.861846924 -0.744801342 2.000000000
v 0.832674146 -0.740766287 2.000000000
v 0.399258137 -0.509100556 2.000000000
v 0.891155660 -0.747687995 2.000000000
v 0.419669926 -0.530330062 2.000000000
v 0.236707568 -0.231762752 2.000000000
v 1.067325830 -0.740766287 2.000000000
v 0.246356487 -0.259587795 2.000000000
v 0.379695535 -0.487086028 2.000000000
v 0.361012340 -0.464320481 2.000000000
v 0.920555115 -0.749421775 2.000000000
v 0.343237221 -0.440838933 2.000000000
v 0.949999988 -0.750000000 2.000000000
v 0.257090390 -0.287012577 2.000000000
v 1.038153052 -0.744801342 2.000000000
v 0.268892586 -0.313994825 2.000000000
v 0.326397777 -0.416677684 2.000000000
v 0.979444861 -0.749421775 2.000000000
v 0.281745076 -0.340492904 2.000000000
v 1.008844256 -0.747687995 2.000000000
v 0.295628011 -0.366465896 2.000000000
v 0.310519874 -0.391873896 2.000000000
f 4 6 1
f 7 10 6
f 11 14 10
f 16 19 14
f 20 23 19
f 25 28 23
f 29 32 28
f 34 37 32
f 40 42 37
f 43 46 42
f 47 50 46
f 52 55 50
f 56 59 55
f 61 64 59
f 66 69 64
f 70 73 69
f 76 77 73
f 81 82 77
f 85 87 82
f 90 91 87
f 94 95 91
f 99 100 95
f 103 104 100
f 107 109 104
f 110 113 109
f 115 118 113
f 119 122 118
f 124 127 122
f 130 131 127
f 134 136 131
f 139 140 136
f 142 145 140
f 146 149 145
f 151 154 149
f 155 158 154
f 160 163 158
f 164 167 163
f 169 172 167
f 173 176 172
f 178 181 176
f 182 186 181
f 187 190 186
f 191 195 190
f 196 199 195
f 200 204 199
f 206 208 204
f 211 212 208
f 215 217 212
f 220 221 217
f 223 226 221
f 227 230 226
f 232 235 230
f 238 240 235
f 241 244 240
f 245 249 244
f 250 253 249
f 255 258 253
f 261 262 258
f 264 267 262
f 268 271 267
f 274 276 271
f 277 280 276
f 282 284 280
f 288 289 284
f 291 294 289
f 297 298 294
f 301 302 298
f 306 307 302
f 310 311 307
f 314 316 311
f 319 320 316
f 323 325 320
f 328 329 325
f 331 334 329
f 337 338 334
f 340 343 338
f 346 348 343
f 350 352 348
f 354 356 352
f 360 361 356
f 364 365 361
f 367 370 365
f 371 374 370
f 376 379 374
f 382 383 379
f 386 388 383
f 391 392 388
f 395 397 392
f 400 401 397
f 404 406 401
f 409 411 406
f 414 415 411
f 418 419 415
f 423 424 419
f 427 429 424
f 430 433 429
f 435 437 433
f 439 442 437
f 443 447 442
f 448 451 447
f 453 456 451
f 457 460 456
f 461 464 460
f 466 469 464
f 470 473 469
f 475 478 473
f 480 482 478
f 483 485 482
f 486 488 485
f 489 491 488
f 492 494 491
f 495 497 494
f 498 500 497
f 501 503 500
f 504 506 503
f 508 509 506
f 511 512 509
f 514 515 512
f 517 518 515
f 519 521 518
f 522 524 521
f 525 527 524
f 528 530 527
f 531 533 530
f 535 536 533
f 537 539 536
f 540 542 539
f 543 545 542
f 547 548 545
f 550 551 548
f 553 554 551
f 555 557 554
f 559 560 557
f 561 563 560
f 565 566 563
f 567 569 566
f 571 572 569
f 574 575 572
f 577 578 575
f 580 581 578
f 583 584 581
f 586 587 584
f 588 590 587
f 591 593 590
f 595 596 593
f 597 599 596
f 600 602 599
f 603 605 602
f 606 608 605
f 609 611 608
f 613 614 611
f 616 617 614
f 618 620 617
f 621 623 620
f 624 626 623
f 628 629 626
f 630 632 629
f 633 635 632
f 531 661 663
f 955 953 775
f 893 894 788
f 637 638 635
f 639 1 638
f 276 536 632
f 2 719 720
f 9 722 719
f 13 721 722
f 17 728 721
f 22 724 728
f 26 723 724
f 31 727 723
f 36 726 727
f 38 725 726
f 44 738 725
f 49 729 738
f 54 732 729
f 58 731 732
f 62 730 731
f 67 737 730
f 72 733 737
f 74 736 733
f 79 734 736
f 83 735 734
f 92 735 88
f 92 768 759
f 97 762 768
f 102 766 762
f 106 764 766
f 112 799 764
f 117 770 799
f 121 774 770
f 125 772 774
f 129 782 772
f 133 776 782
f 137 780 776
f 143 778 780
f 148 797 778
f 153 784 797
f 157 788 784
f 162 786 788
f 166 795 786
f 170 790 795
f 175 793 790
f 180 791 793
f 184 792 791
f 189 794 792
f 193 789 794
f 197 796 789
f 202 785 796
f 205 787 785
f 210 783 787
f 214 798 783
f 219 777 798
f 225 779 777
f 229 775 779
f 234 781 775
f 237 771 781
f 243 773 771
f 247 769 773
f 252 800 769
f 256 763 800
f 259 765 763
f 265 761 765
f 269 767 761
f 273 758 767
f 279 760 758
f 283 756 760
f 286 757 756
f 292 755 757
f 295 754 755
f 299 751 754
f 304 752 751
f 308 750 752
f 313 753 750
f 317 748 753
f 322 749 748
f 327 747 749
f 333 746 747
f 336 744 746
f 342 745 744
f 344 743 745
f 349 742 743
f 355 741 742
f 358 740 741
f 362 712 740
f 369 713 712
f 373 715 713
f 377 709 715
f 380 710 709
f 385 717 710
f 389 704 717
f 394 706 704
f 398 701 706
f 403 702 701
f 407 691 702
f 412 692 691
f 416 690 692
f 421 687 690
f 426 688 687
f 431 695 688
f 436 682 695
f 440 681 682
f 445 684 681
f 450 679 684
f 454 697 679
f 458 672 697
f 463 673 672
f 468 675 673
f 472 657 675
f 476 656 657
f 481 658 656
f 484 655 658
f 487 659 655
f 490 652 659
f 493 653 652
f 496 654 653
f 499 650 654
f 502 651 650
f 505 648 651
f 507 645 648
f 510 646 645
f 513 642 646
f 516 643 642
f 520 641 643
f 523 644 641
f 526 649 644
f 529 647 649
f 532 660 647
f 534 661 660
f 538 663 661
f 541 662 663
f 544 668 662
f 546 664 668
f 549 667 664
f 552 666 667
f 556 665 666
f 558 677 665
f 562 669 677
f 564 670 669
f 568 676 670
f 570 671 676
f 573 674 671
f 576 698 674
f 579 680 698
f 582 678 680
f 585 685 678
f 589 683 685
f 592 696 683
f 594 686 696
f 598 689 686
f 601 694 689
f 604 693 694
f 607 699 693
f 610 700 699
f 612 703 700
f 615 707 703
f 619 705 707
f 622 718 705
f 625 708 718
f 627 711 708
f 631 716 711
f 634 714 716
f 210 589 493
f 636 739 714
f 640 720 739
f 3 845 843
f 5 844 845
f 8 855 844
f 12 847 855
f 15 850 847
f 18 849 850
f 21 848 849
f 24 854 848
f 27 851 854
f 30 853 851
f 33 852 853
f 35 889 852
f 39 858 889
f 41 862 858
f 45 860 862
f 48 872 860
f 51 865 872
f 53 863 865
f 57 870 863
f 60 868 870
f 63 879 868
f 65 874 879
f 68 877 874
f 71 875 877
f 75 888 875
f 78 881 888
f 80 886 881
f 84 802 886
f 86 801 802
f 89 804 801
f 93 810 804
f 96 808 810
f 98 806 808
f 101 823 806
f 105 814 823
f 108 812 814
f 111 820 812
f 114 815 820
f 116 818 815
f 120 816 818
f 123 817 816
f 126 819 817
f 128 822 819
f 132 811 822
f 135 813 811
f 138 821 813
f 141 805 821
f 144 807 805
f 147 809 807
f 150 803 809
f 152 882 803
f 156 883 882
f 159 885 883
f 161 880 885
f 165 884 880
f 168 876 884
f 171 878 876
f 174 873 878
f 177 887 873
f 179 866 887
f 183 867 866
f 185 869 867
f 188 864 869
f 192 871 864
f 194 859 871
f 198 861 859
f 201 857 861
f 203 908 857
f 207 910 908
f 209 909 910
f 213 906 909
f 216 907 906
f 218 913 907
f 222 917 913
f 224 921 917
f 228 946 921
f 231 954 946
f 233 959 954
f 236 957 959
f 239 952 957
f 242 950 952
f 246 943 950
f 248 940 943
f 251 941 940
f 254 933 941
f 257 934 933
f 260 927 934
f 263 926 927
f 266 928 926
f 270 925 928
f 272 929 925
f 275 923 929
f 278 924 923
f 281 922 924
f 285 931 922
f 287 930 931
f 290 932 930
f 293 939 932
f 296 938 939
f 300 944 938
f 303 942 944
f 305 948 942
f 309 949 948
f 315 949 312
f 315 956 951
f 318 961 956
f 321 960 961
f 324 958 960
f 326 955 958
f 330 953 955
f 332 947 953
f 335 945 947
f 339 937 945
f 345 936 935
f 345 920 936
f 347 919 920
f 351 918 919
f 353 916 918
f 357 915 916
f 359 914 915
f 363 912 914
f 366 890 912
f 368 891 890
f 372 892 891
f 375 893 892
f 378 894 893
f 381 895 894
f 384 896 895
f 387 900 896
f 390 897 900
f 393 899 897
f 396 898 899
f 399 911 898
f 402 902 911
f 405 901 902
f 408 905 901
f 410 904 905
f 413 903 904
f 417 824 903
f 420 826 824
f 422 825 826
f 425 830 825
f 428 827 830
f 432 829 827
f 434 828 829
f 438 831 828
f 441 832 831
f 444 834 832
f 446 833 834
f 449 839 833
f 452 835 839
f 455 838 835
f 459 837 838
f 462 836 837
f 465 856 836
f 467 840 856
f 471 842 840
f 474 841 842
f 318 126 30
f 477 846 841
f 479 843 846
f 4 7 6
f 7 11 10
f 11 16 14
f 16 20 19
f 20 25 23
f 25 29 28
f 29 34 32
f 34 40 37
f 40 43 42
f 43 47 46
f 47 52 50
f 52 56 55
f 56 61 59
f 61 66 64
f 66 70 69
f 70 76 73
f 76 81 77
f 81 85 82
f 85 90 87
f 90 94 91
f 94 99 95
f 99 103 100
f 103 107 104
f 107 110 109
f 110 115 113
f 115 119 118
f 119 124 122
f 124 130 127
f 130 134 131
f 134 139 136
f 139 142 140
f 142 146 145
f 146 151 149
f 151 155 154
f 155 160 158
f 160 164 163
f 164 169 167
f 169 173 172
f 173 178 176
f 178 182 181
f 182 187 186
f 187 191 190
f 191 196 195
f 196 200 199
f 200 206 204
f 206 211 208
f 211 215 212
f 215 220 217
f 220 223 221
f 223 227 226
f 227 232 230
f 232 238 235
f 238 241 240
f 241 245 244
f 245 250 249
f 250 255 253
f 255 261 258
f 261 264 262
f 264 268 267
f 268 274 271
f 274 277 276
f 277 282 280
f 282 288 284
f 288 291 289
f 291 297 294
f 297 301 298
f 301 306 302
f 306 310 307
f 310 314 311
f 314 319 316
f 319 323 320
f 323 328 325
f 328 331 329
f 331 337 334
f 337 340 338
f 340 346 343
f 346 350 348
f 350 354 352
f 354 360 356
f 360 364 361
f 364 367 365
f 367 371 370
f 371 376 374
f 376 382 379
f 382 386 383
f 386 391 388
f 391 395 392
f 395 400 397
f 400 404 401
f 404 409 406
f 409 414 411
f 414 418 415
f 418 423 419
f 423 427 424
f 427 430 429
f 430 435 433
f 435 439 437
f 439 443 442
f 443 448 447
f 448 453 451
f 453 457 456
f 457 461 460
f 461 466 464
f 466 470 469
f 470 475 473
f 475 480 478
f 480 483 482
f 483 486 485
f 486 489 488
f 489 492 491
f 492 495 494
f 495 498 497
f 498 501 500
f 501 504 503
f 504 508 506
f 508 511 509
f 511 514 512
f 514 517 515
f 517 519 518
f 519 522 521
f 522 525 524
f 525 528 527
f 528 531 530
f 531 535 533
f 535 537 536
f 537 540 539
f 540 543 542
f 543 547 545
f 547 550 548
f 550 553 551
f 553 555 554
f 555 559 557
f 559 561 560
f 561 565 563
f 565 567 566
f 567 571 569
f 571 574 572
f 574 577 575
f 577 580 578
f 580 583 581
f 583 586 584
f 586 588 587
f 588 591 590
f 591 595 593
f 595 597 596
f 597 600 599
f 600 603 602
f 603 606 605
f 606 609 608
f 609 613 611
f 613 616 614
f 616 618 617
f 618 621 620
f 621 624 623
f 624 628 626
f 628 630 629
f 630 633 632
f 633 637 635
f 553 550 674
f 550 547 671
f 677 543 540
f 547 543 670
f 662 535 531
f 540 537 666
f 537 535 664
f 644 525 522
f 531 528 661
f 641 522 643
f 528 525 647
f 643 519 642
f 522 519 643
f 519 517 646
f 517 514 648
f 514 511 650
f 517 645 646
f 511 508 653
f 508 504 659
f 651 514 650
f 659 652 508
f 652 653 508
f 645 517 648
f 514 651 648
f 519 646 642
f 525 644 649
f 522 641 644
f 543 677 669
f 535 662 668
f 647 525 649
f 671 674 550
f 676 671 547
f 653 654 511
f 654 650 511
f 670 676 547
f 669 670 543
f 665 677 540
f 666 665 540
f 667 666 537
f 528 647 660
f 664 667 537
f 668 664 535
f 528 660 661
f 663 662 531
f 319 314 927
f 314 310 934
f 946 274 921
f 310 306 933
f 306 301 941
f 917 268 264
f 301 297 940
f 297 291 943
f 913 264 907
f 291 288 950
f 288 282 957
f 907 261 906
f 282 277 959
f 277 274 954
f 908 250 245
f 274 268 921
f 857 245 861
f 264 261 907
f 261 255 906
f 861 241 859
f 255 250 910
f 871 241 238
f 245 241 861
f 864 238 869
f 238 232 869
f 232 227 867
f 869 232 867
f 227 223 887
f 223 220 878
f 220 215 884
f 215 211 885
f 227 887 866
f 211 206 882
f 206 200 809
f 200 196 805
f 196 191 813
f 817 187 182
f 191 187 822
f 816 182 818
f 182 178 818
f 178 815 818
f 187 817 819
f 182 816 817
f 878 220 876
f 867 227 866
f 241 871 859
f 238 864 871
f 245 857 908
f 250 908 910
f 268 917 921
f 264 913 917
f 909 255 910
f 323 319 926
f 274 946 954
f 331 328 925
f 328 323 928
f 340 337 923
f 337 331 929
f 350 346 922
f 346 340 924
f 928 323 926
f 360 354 930
f 354 350 931
f 929 331 925
f 367 364 756
f 364 360 932
f 924 340 923
f 376 371 755
f 371 367 757
f 395 750 753
f 386 382 751
f 382 376 754
f 404 748 749
f 395 391 750
f 391 386 752
f 747 409 749
f 404 400 748
f 400 395 753
f 744 418 746
f 414 409 747
f 409 404 749
f 743 427 745
f 423 418 744
f 418 414 746
f 741 435 742
f 430 427 743
f 427 423 745
f 712 443 439
f 439 435 741
f 435 430 742
f 709 453 715
f 448 443 713
f 466 701 470
f 457 453 710
f 453 448 715
f 687 480 690
f 466 461 706
f 461 457 717
f 483 688 695
f 475 470 691
f 695 486 483
f 483 480 687
f 480 475 692
f 681 486 682
f 489 486 681
f 489 684 492
f 495 492 697
f 679 492 684
f 501 498 657
f 498 495 673
f 659 504 655
f 504 501 658
f 655 504 658
f 495 697 672
f 492 679 697
f 684 489 681
f 486 695 682
f 688 483 687
f 701 466 706
f 453 709 710
f 443 712 713
f 692 475 691
f 933 306 941
f 319 927 926
f 952 288 957
f 310 933 934
f 255 909 906
f 887 223 873
f 187 819 822
f 288 952 950
f 470 701 702
f 691 470 702
f 690 480 692
f 656 658 501
f 191 822 811
f 657 656 501
f 675 657 498
f 191 811 813
f 673 675 498
f 672 673 495
f 196 813 821
f 196 821 805
f 200 805 807
f 706 461 704
f 200 807 809
f 809 803 206
f 704 461 717
f 803 882 206
f 882 883 211
f 717 457 710
f 883 885 211
f 885 880 215
f 880 884 215
f 884 876 220
f 715 448 713
f 878 873 223
f 712 439 740
f 740 439 741
f 742 430 743
f 745 423 744
f 277 954 959
f 746 414 747
f 282 959 957
f 291 950 943
f 748 400 753
f 297 943 940
f 750 391 752
f 301 940 941
f 752 386 751
f 751 382 754
f 314 934 927
f 754 376 755
f 755 371 757
f 328 928 925
f 756 757 367
f 760 756 939
f 939 756 932
f 758 760 938
f 938 760 939
f 337 929 923
f 767 758 944
f 944 758 938
f 761 767 942
f 942 767 944
f 346 924 922
f 765 761 948
f 948 761 942
f 763 765 949
f 949 765 948
f 350 922 931
f 800 763 951
f 951 763 949
f 769 800 956
f 956 800 951
f 354 931 930
f 773 769 961
f 961 769 956
f 771 773 960
f 960 773 961
f 360 930 932
f 781 771 958
f 958 771 960
f 775 781 955
f 777 947 945
f 364 932 756
f 779 775 953
f 947 777 779
f 777 945 798
f 798 945 937
f 798 937 783
f 783 937 935
f 787 783 935
f 785 787 935
f 796 785 935
f 789 796 935
f 794 789 935
f 792 794 935
f 791 792 935
f 935 790 793
f 793 791 935
f 958 955 781
f 947 779 953
f 565 561 689
f 561 559 696
f 685 555 678
f 559 555 685
f 555 553 678
f 678 553 680
f 553 674 698
f 553 698 680
f 571 567 699
f 567 565 693
f 577 574 707
f 574 571 703
f 693 565 694
f 583 580 708
f 580 577 718
f 699 567 693
f 588 586 714
f 586 583 716
f 700 571 699
f 595 591 719
f 591 588 739
f 600 597 721
f 597 595 722
f 705 577 707
f 606 603 724
f 603 600 728
f 613 609 727
f 609 606 723
f 618 616 725
f 616 613 726
f 624 621 729
f 621 618 738
f 630 628 731
f 628 624 732
f 637 633 737
f 633 630 730
f 738 618 725
f 4 639 736
f 639 637 733
f 732 624 729
f 11 7 829
f 7 4 827
f 20 16 831
f 16 11 828
f 29 25 834
f 25 20 832
f 736 639 733
f 40 34 839
f 34 29 833
f 836 52 837
f 47 43 838
f 43 40 835
f 840 61 856
f 56 52 836
f 52 47 837
f 841 70 842
f 66 61 840
f 61 56 856
f 843 81 846
f 76 70 841
f 70 66 842
f 844 90 85
f 85 81 845
f 81 76 846
f 849 99 850
f 94 90 855
f 852 115 110
f 103 99 849
f 99 94 850
f 130 872 865
f 110 107 851
f 107 103 854
f 130 863 134
f 119 115 889
f 870 134 863
f 130 124 872
f 124 119 862
f 139 868 879
f 139 134 870
f 879 142 139
f 146 142 877
f 877 142 874
f 155 151 886
f 151 146 888
f 875 146 877
f 164 160 810
f 160 155 801
f 173 169 814
f 169 164 806
f 802 155 886
f 815 178 820
f 178 173 820
f 155 802 801
f 151 888 881
f 146 875 888
f 142 879 874
f 868 139 870
f 863 130 865
f 115 852 889
f 90 844 855
f 124 862 860
f 81 843 845
f 858 119 889
f 637 737 733
f 630 731 730
f 728 600 721
f 616 726 725
f 711 583 708
f 609 723 727
f 603 728 724
f 708 580 718
f 597 722 721
f 588 714 739
f 718 577 705
f 574 703 707
f 571 700 703
f 565 689 694
f 559 685 683
f 583 711 716
f 119 858 862
f 844 85 845
f 872 124 860
f 151 881 886
f 812 820 173
f 814 812 173
f 586 716 714
f 559 683 696
f 823 814 169
f 806 823 169
f 561 696 686
f 561 686 689
f 808 806 164
f 810 808 164
f 804 810 160
f 801 804 160
f 591 739 720
f 591 720 719
f 595 719 722
f 852 110 853
f 606 724 723
f 853 110 851
f 851 107 854
f 613 727 726
f 854 103 848
f 848 103 849
f 621 738 729
f 850 94 847
f 628 732 731
f 847 94 855
f 633 730 737
f 846 76 841
f 4 736 827
f 7 827 829
f 842 66 840
f 11 829 828
f 856 56 836
f 16 828 831
f 736 734 827
f 734 735 830
f 734 830 827
f 735 759 825
f 837 47 838
f 735 825 830
f 759 768 826
f 759 826 825
f 768 762 824
f 826 768 824
f 838 43 835
f 762 766 903
f 766 764 904
f 835 40 839
f 824 762 903
f 764 799 905
f 799 770 901
f 903 766 904
f 839 34 833
f 770 774 902
f 774 772 911
f 834 833 29
f 904 764 905
f 772 782 898
f 782 776 899
f 905 799 901
f 832 834 25
f 831 832 20
f 776 780 897
f 780 778 900
f 901 770 902
f 778 797 896
f 797 784 895
f 902 774 911
f 784 788 894
f 788 786 893
f 911 772 898
f 786 795 892
f 795 790 890
f 790 935 936
f 790 936 920
f 898 782 899
f 790 920 919
f 790 919 918
f 899 776 897
f 790 918 916
f 790 916 915
f 897 780 900
f 790 915 914
f 790 914 912
f 900 778 896
f 790 912 890
f 896 797 895
f 795 890 891
f 795 891 892
f 895 784 894
f 892 893 786
f 637 639 638
f 639 4 1
f 632 635 6
f 635 638 6
f 638 1 6
f 6 10 23
f 10 14 23
f 14 19 23
f 23 28 32
f 32 37 42
f 42 46 59
f 46 50 59
f 50 55 59
f 59 64 77
f 64 69 77
f 69 73 77
f 77 82 87
f 87 91 77
f 91 95 77
f 95 100 104
f 104 109 113
f 113 118 131
f 118 122 131
f 122 127 131
f 131 136 149
f 136 140 149
f 140 145 149
f 149 154 158
f 158 163 167
f 167 172 186
f 172 176 186
f 176 181 186
f 186 190 204
f 190 195 204
f 195 199 204
f 204 208 212
f 212 217 221
f 221 226 240
f 226 230 240
f 230 235 240
f 240 244 258
f 244 249 258
f 249 253 258
f 258 262 267
f 267 271 258
f 271 276 258
f 276 280 284
f 284 289 294
f 294 298 311
f 298 302 311
f 302 307 311
f 311 316 329
f 316 320 329
f 320 325 329
f 329 334 338
f 338 343 348
f 348 352 365
f 352 356 365
f 356 361 365
f 365 370 383
f 370 374 383
f 374 379 383
f 383 388 392
f 392 397 401
f 401 406 419
f 406 411 419
f 411 415 419
f 419 424 437
f 424 429 437
f 429 433 437
f 437 442 447
f 447 451 437
f 451 456 437
f 456 460 464
f 464 469 473
f 473 478 488
f 478 482 488
f 482 485 488
f 488 491 500
f 491 494 500
f 494 497 500
f 500 503 506
f 506 509 512
f 512 515 524
f 515 518 524
f 518 521 524
f 524 527 536
f 527 530 536
f 530 533 536
f 536 539 542
f 542 545 548
f 548 551 560
f 551 554 560
f 554 557 560
f 560 563 572
f 563 566 572
f 566 569 572
f 572 575 578
f 578 581 572
f 581 584 572
f 584 587 590
f 590 593 596
f 596 599 608
f 599 602 608
f 602 605 608
f 608 611 620
f 611 614 620
f 614 617 620
f 620 623 626
f 626 629 632
f 23 32 59
f 32 42 59
f 95 104 113
f 149 158 167
f 204 212 240
f 212 221 240
f 276 284 311
f 284 294 311
f 329 338 348
f 383 392 419
f 392 401 419
f 456 464 473
f 500 506 512
f 536 542 560
f 542 548 560
f 584 590 608
f 590 596 608
f 620 626 632
f 632 6 23
f 59 77 95
f 95 113 59
f 113 131 59
f 131 149 204
f 149 167 204
f 167 186 204
f 240 258 204
f 258 276 204
f 311 329 276
f 329 348 276
f 348 365 383
f 419 437 456
f 456 473 419
f 473 488 419
f 488 500 536
f 500 512 536
f 512 524 536
f 560 572 584
f 608 620 584
f 620 632 584
f 632 23 59
f 348 383 276
f 383 419 276
f 536 560 632
f 560 584 632
f 632 59 131
f 131 204 276
f 419 488 276
f 488 536 276
f 632 131 276
f 2 9 719
f 9 13 722
f 13 17 721
f 17 22 728
f 22 26 724
f 26 31 723
f 31 36 727
f 36 38 726
f 38 44 725
f 44 49 738
f 49 54 729
f 54 58 732
f 58 62 731
f 62 67 730
f 67 72 737
f 72 74 733
f 74 79 736
f 79 83 734
f 83 88 735
f 92 759 735
f 92 97 768
f 97 102 762
f 102 106 766
f 106 112 764
f 112 117 799
f 117 121 770
f 121 125 774
f 125 129 772
f 129 133 782
f 133 137 776
f 137 143 780
f 143 148 778
f 148 153 797
f 153 157 784
f 157 162 788
f 162 166 786
f 166 170 795
f 170 175 790
f 175 180 793
f 180 184 791
f 184 189 792
f 189 193 794
f 193 197 789
f 197 202 796
f 202 205 785
f 205 210 787
f 210 214 783
f 214 219 798
f 219 225 777
f 225 229 779
f 229 234 775
f 234 237 781
f 237 243 771
f 243 247 773
f 247 252 769
f 252 256 800
f 256 259 763
f 259 265 765
f 265 269 761
f 269 273 767
f 273 279 758
f 279 283 760
f 283 286 756
f 286 292 757
f 292 295 755
f 295 299 754
f 299 304 751
f 304 308 752
f 308 313 750
f 313 317 753
f 317 322 748
f 322 327 749
f 327 333 747
f 333 336 746
f 336 342 744
f 342 344 745
f 344 349 743
f 349 355 742
f 355 358 741
f 358 362 740
f 362 369 712
f 369 373 713
f 373 377 715
f 377 380 709
f 380 385 710
f 385 389 717
f 389 394 704
f 394 398 706
f 398 403 701
f 403 407 702
f 407 412 691
f 412 416 692
f 416 421 690
f 421 426 687
f 426 431 688
f 431 436 695
f 436 440 682
f 440 445 681
f 445 450 684
f 450 454 679
f 454 458 697
f 458 463 672
f 463 468 673
f 468 472 675
f 472 476 657
f 476 481 656
f 481 484 658
f 484 487 655
f 487 490 659
f 490 493 652
f 493 496 653
f 496 499 654
f 499 502 650
f 502 505 651
f 505 507 648
f 507 510 645
f 510 513 646
f 513 516 642
f 516 520 643
f 520 523 641
f 523 526 644
f 526 529 649
f 529 532 647
f 532 534 660
f 534 538 661
f 538 541 663
f 541 544 662
f 544 546 668
f 546 549 664
f 549 552 667
f 552 556 666
f 556 558 665
f 558 562 677
f 562 564 669
f 564 568 670
f 568 570 676
f 570 573 671
f 573 576 674
f 576 579 698
f 579 582 680
f 582 585 678
f 585 589 685
f 589 592 683
f 592 594 696
f 594 598 686
f 598 601 689
f 601 604 694
f 604 607 693
f 607 610 699
f 610 612 700
f 612 615 703
f 615 619 707
f 619 622 705
f 622 625 718
f 625 627 708
f 627 631 711
f 631 634 716
f 634 636 714
f 493 490 487
f 487 484 493
f 484 481 493
f 481 476 472
f 472 468 463
f 463 458 454
f 454 450 445
f 445 440 436
f 436 431 426
f 426 421 407
f 421 416 407
f 416 412 407
f 407 403 398
f 398 394 407
f 394 389 407
f 389 385 373
f 385 380 373
f 380 377 373
f 373 369 362
f 362 358 373
f 358 355 373
f 355 349 344
f 344 342 355
f 342 336 355
f 336 333 317
f 333 327 317
f 327 322 317
f 317 313 308
f 308 304 317
f 304 299 317
f 299 295 292
f 292 286 299
f 286 283 299
f 283 279 273
f 273 269 265
f 265 259 247
f 259 256 247
f 256 252 247
f 247 243 229
f 243 237 229
f 237 234 229
f 229 225 219
f 219 214 229
f 214 210 229
f 210 205 193
f 205 202 193
f 202 197 193
f 193 189 175
f 189 184 175
f 184 180 175
f 175 170 166
f 166 162 175
f 162 157 175
f 157 153 137
f 153 148 137
f 148 143 137
f 137 133 129
f 129 125 137
f 125 121 137
f 121 117 112
f 112 106 121
f 106 102 121
f 102 97 92
f 92 88 83
f 83 79 67
f 79 74 67
f 74 72 67
f 67 62 49
f 62 58 49
f 58 54 49
f 49 44 38
f 38 36 49
f 36 31 49
f 31 26 13
f 26 22 13
f 22 17 13
f 13 9 636
f 9 2 636
f 2 640 636
f 636 634 631
f 631 627 636
f 627 625 636
f 625 622 612
f 622 619 612
f 619 615 612
f 612 610 607
f 607 604 612
f 604 601 612
f 601 598 594
f 594 592 589
f 589 585 582
f 582 579 576
f 576 573 570
f 570 568 564
f 564 562 552
f 562 558 552
f 558 556 552
f 552 549 546
f 546 544 552
f 544 541 552
f 541 538 529
f 538 534 529
f 534 532 529
f 529 526 523
f 523 520 529
f 520 516 529
f 516 513 510
f 510 507 516
f 507 505 516
f 505 502 493
f 502 499 493
f 499 496 493
f 481 472 493
f 472 463 493
f 463 454 426
f 454 445 426
f 445 436 426
f 283 273 247
f 273 265 247
f 102 92 67
f 92 83 67
f 601 594 589
f 589 582 564
f 582 576 564
f 576 570 564
f 426 407 355
f 407 389 355
f 389 373 355
f 355 336 317
f 317 299 283
f 247 229 210
f 210 193 175
f 175 157 137
f 137 121 102
f 67 49 636
f 49 31 636
f 31 13 636
f 636 625 612
f 612 601 589
f 564 552 589
f 552 541 589
f 541 529 516
f 516 505 493
f 493 463 426
f 355 317 283
f 283 247 355
f 247 210 355
f 210 175 137
f 137 102 67
f 636 612 589
f 541 516 493
f 493 426 355
f 210 137 67
f 67 636 589
f 589 541 493
f 493 355 210
f 210 67 589
f 636 640 739
f 640 2 720
f 3 5 845
f 5 8 844
f 8 12 855
f 12 15 847
f 15 18 850
f 18 21 849
f 21 24 848
f 24 27 854
f 27 30 851
f 30 33 853
f 33 35 852
f 35 39 889
f 39 41 858
f 41 45 862
f 45 48 860
f 48 51 872
f 51 53 865
f 53 57 863
f 57 60 870
f 60 63 868
f 63 65 879
f 65 68 874
f 68 71 877
f 71 75 875
f 75 78 888
f 78 80 881
f 80 84 886
f 84 86 802
f 86 89 801
f 89 93 804
f 93 96 810
f 96 98 808
f 98 101 806
f 101 105 823
f 105 108 814
f 108 111 812
f 111 114 820
f 114 116 815
f 116 120 818
f 120 123 816
f 123 126 817
f 126 128 819
f 128 132 822
f 132 135 811
f 135 138 813
f 138 141 821
f 141 144 805
f 144 147 807
f 147 150 809
f 150 152 803
f 152 156 882
f 156 159 883
f 159 161 885
f 161 165 880
f 165 168 884
f 168 171 876
f 171 174 878
f 174 177 873
f 177 179 887
f 179 183 866
f 183 185 867
f 185 188 869
f 188 192 864
f 192 194 871
f 194 198 859
f 198 201 861
f 201 203 857
f 203 207 908
f 207 209 910
f 209 213 909
f 213 216 906
f 216 218 907
f 218 222 913
f 222 224 917
f 224 228 921
f 228 231 946
f 231 233 954
f 233 236 959
f 236 239 957
f 239 242 952
f 242 246 950
f 246 248 943
f 248 251 940
f 251 254 941
f 254 257 933
f 257 260 934
f 260 263 927
f 263 266 926
f 266 270 928
f 270 272 925
f 272 275 929
f 275 278 923
f 278 281 924
f 281 285 922
f 285 287 931
f 287 290 930
f 290 293 932
f 293 296 939
f 296 300 938
f 300 303 944
f 303 305 942
f 305 309 948
f 309 312 949
f 315 951 949
f 315 318 956
f 318 321 961
f 321 324 960
f 324 326 958
f 326 330 955
f 330 332 953
f 332 335 947
f 335 339 945
f 339 341 937
f 935 937 341
f 341 345 935
f 345 347 920
f 347 351 919
f 351 353 918
f 353 357 916
f 357 359 915
f 359 363 914
f 363 366 912
f 366 368 890
f 368 372 891
f 372 375 892
f 375 378 893
f 378 381 894
f 381 384 895
f 384 387 896
f 387 390 900
f 390 393 897
f 393 396 899
f 396 399 898
f 399 402 911
f 402 405 902
f 405 408 901
f 408 410 905
f 410 413 904
f 413 417 903
f 417 420 824
f 420 422 826
f 422 425 825
f 425 428 830
f 428 432 827
f 432 434 829
f 434 438 828
f 438 441 831
f 441 444 832
f 444 446 834
f 446 449 833
f 449 452 839
f 452 455 835
f 455 459 838
f 459 462 837
f 462 465 836
f 465 467 856
f 467 471 840
f 471 474 842
f 474 477 841
f 30 27 24
f 24 21 18
f 18 15 12
f 12 8 18
f 8 5 18
f 5 3 479
f 479 477 5
f 477 474 5
f 474 471 467
f 467 465 462
f 462 459 455
f 455 452 462
f 452 449 462
f 449 446 444
f 444 441 438
f 438 434 432
f 432 428 425
f 425 422 413
f 422 420 413
f 420 417 413
f 413 410 408
f 408 405 413
f 405 402 413
f 402 399 396
f 396 393 402
f 393 390 402
f 390 387 384
f 384 381 378
f 378 375 372
f 372 368 378
f 368 366 378
f 366 363 359
f 359 357 366
f 357 353 366
f 353 351 347
f 347 345 341
f 341 339 335
f 335 332 341
f 332 330 341
f 330 326 324
f 324 321 318
f 318 315 312
f 312 309 305
f 305 303 293
f 303 300 293
f 300 296 293
f 293 290 287
f 287 285 281
f 281 278 275
f 275 272 281
f 272 270 281
f 270 266 263
f 263 260 257
f 257 254 251
f 251 248 257
f 248 246 257
f 246 242 239
f 239 236 246
f 236 233 246
f 233 231 228
f 228 224 222
f 222 218 216
f 216 213 222
f 213 209 222
f 209 207 203
f 203 201 198
f 198 194 185
f 194 192 185
f 192 188 185
f 185 183 174
f 183 179 174
f 179 177 174
f 174 171 161
f 171 168 161
f 168 165 161
f 161 159 156
f 156 152 161
f 152 150 161
f 150 147 144
f 144 141 138
f 138 135 132
f 132 128 138
f 128 126 138
f 126 123 120
f 120 116 126
f 116 114 126
f 114 111 108
f 108 105 101
f 101 98 96
f 96 93 101
f 93 89 101
f 89 86 84
f 84 80 78
f 78 75 65
f 75 71 65
f 71 68 65
f 65 63 60
f 60 57 53
f 53 51 41
f 51 48 41
f 48 45 41
f 41 39 35
f 35 33 41
f 33 30 41
f 30 24 18
f 474 467 5
f 467 462 5
f 449 444 462
f 444 438 462
f 438 432 413
f 432 425 413
f 390 384 378
f 353 347 366
f 347 341 366
f 330 324 341
f 324 318 341
f 318 312 293
f 312 305 293
f 293 287 281
f 270 263 257
f 233 228 246
f 228 222 246
f 209 203 222
f 203 198 222
f 150 144 138
f 114 108 126
f 108 101 126
f 89 84 78
f 65 60 78
f 60 53 78
f 30 18 462
f 18 5 462
f 413 402 390
f 390 378 413
f 378 366 413
f 293 281 318
f 281 270 318
f 270 257 222
f 257 246 222
f 198 185 222
f 185 174 222
f 174 161 150
f 150 138 174
f 138 126 174
f 101 89 78
f 53 41 30
f 462 438 413
f 366 341 318
f 126 101 78
f 78 53 126
f 53 30 126
f 30 462 318
f 462 413 318
f 413 366 318
f 318 270 222
f 222 174 126
f 318 222 126
f 477 479 846
f 479 3 843
