# Feature-confinement target
# Coordinates are in millimetres; outward winding is intentional.
o feature_confinement_target
v -1.75 1 -3.25
v -1.75 1 -2.75
v -0.6 1 -2.75
v -0.6 1 -3.25
v -1.75 -1 -3.25
v -0.6 -1 -3.25
v -0.6 -1 -2.75
v -1.75 -1 -2.75
v -1.75 1 -1.81
v -0.6 1 -1.81
v -0.6 -1 -1.81
v -1.75 -1 -1.81
v -1.75 1 -1.71
v -0.6 1 -1.71
v -0.6 -1 -1.71
v -1.75 -1 -1.71
v -1.75 1 -0.98
v -0.6 1 -0.98
v -0.6 -1 -0.98
v -1.75 -1 -0.98
v -1.75 1 -0.78
v -0.6 1 -0.78
v -0.6 -1 -0.78
v -1.75 -1 -0.78
v -1.75 1 -0.15
v -0.6 1 -0.15
v -0.6 -1 -0.15
v -1.75 -1 -0.15
v -1.75 1 0.15
v -0.6 1 0.15
v -0.6 -1 0.15
v -1.75 -1 0.15
v -1.75 1 0.68
v -0.6 1 0.68
v -0.6 -1 0.68
v -1.75 -1 0.68
v -1.75 1 1.08
v -0.6 1 1.08
v -0.6 -1 1.08
v -1.75 -1 1.08
v -1.75 1 1.51
v -0.6 1 1.51
v -0.6 -1 1.51
v -1.75 -1 1.51
v -1.75 1 2.01
v -0.6 1 2.01
v -0.6 -1 2.01
v -1.75 -1 2.01
v -1.75 1 2.75
v -0.6 1 2.75
v -0.6 -1 2.75
v -1.75 -1 2.75
v -1.75 1 3.25
v -0.6 1 3.25
v -0.6 -1 3.25
v -1.75 -1 3.25
v 0.6 1 -2.75
v 0.6 1 -3.25
v 0.6 -1 -3.25
v 0.6 -1 -2.75
v 0.6 1 -1.71
v 0.6 1 -1.81
v 0.6 -1 -1.81
v 0.6 -1 -1.71
v 0.6 1 -0.78
v 0.6 1 -0.98
v 0.6 -1 -0.98
v 0.6 -1 -0.78
v 0.6 1 0.15
v 0.6 1 -0.15
v 0.6 -1 -0.15
v 0.6 -1 0.15
v 0.6 1 1.08
v 0.6 1 0.68
v 0.6 -1 0.68
v 0.6 -1 1.08
v 0.6 1 2.01
v 0.6 1 1.51
v 0.6 -1 1.51
v 0.6 -1 2.01
v 0.6 1 3.25
v 0.6 1 2.75
v 0.6 -1 2.75
v 0.6 -1 3.25
v 1.75 1 -2.75
v 1.75 1 -3.25
v 1.75 -1 -3.25
v 1.75 -1 -2.75
v 1.75 1 -1.81
v 1.75 -1 -1.81
v 1.75 1 -1.71
v 1.75 -1 -1.71
v 1.75 1 -0.98
v 1.75 -1 -0.98
v 1.75 1 -0.78
v 1.75 -1 -0.78
v 1.75 1 -0.15
v 1.75 -1 -0.15
v 1.75 1 0.15
v 1.75 -1 0.15
v 1.75 1 0.68
v 1.75 -1 0.68
v 1.75 1 1.08
v 1.75 -1 1.08
v 1.75 1 1.51
v 1.75 -1 1.51
v 1.75 1 2.01
v 1.75 -1 2.01
v 1.75 1 2.75
v 1.75 -1 2.75
v 1.75 1 3.25
v 1.75 -1 3.25
f 1 2 3
f 1 3 4
f 5 6 7
f 5 7 8
f 5 8 2
f 5 2 1
f 5 1 4
f 5 4 6
f 2 9 10
f 2 10 3
f 8 7 11
f 8 11 12
f 8 12 9
f 8 9 2
f 7 3 10
f 7 10 11
f 9 13 14
f 9 14 10
f 12 11 15
f 12 15 16
f 12 16 13
f 12 13 9
f 13 17 18
f 13 18 14
f 16 15 19
f 16 19 20
f 16 20 17
f 16 17 13
f 15 14 18
f 15 18 19
f 17 21 22
f 17 22 18
f 20 19 23
f 20 23 24
f 20 24 21
f 20 21 17
f 21 25 26
f 21 26 22
f 24 23 27
f 24 27 28
f 24 28 25
f 24 25 21
f 23 22 26
f 23 26 27
f 25 29 30
f 25 30 26
f 28 27 31
f 28 31 32
f 28 32 29
f 28 29 25
f 29 33 34
f 29 34 30
f 32 31 35
f 32 35 36
f 32 36 33
f 32 33 29
f 31 30 34
f 31 34 35
f 33 37 38
f 33 38 34
f 36 35 39
f 36 39 40
f 36 40 37
f 36 37 33
f 37 41 42
f 37 42 38
f 40 39 43
f 40 43 44
f 40 44 41
f 40 41 37
f 39 38 42
f 39 42 43
f 41 45 46
f 41 46 42
f 44 43 47
f 44 47 48
f 44 48 45
f 44 45 41
f 45 49 50
f 45 50 46
f 48 47 51
f 48 51 52
f 48 52 49
f 48 49 45
f 47 46 50
f 47 50 51
f 49 53 54
f 49 54 50
f 52 51 55
f 52 55 56
f 52 56 53
f 52 53 49
f 56 55 54
f 56 54 53
f 4 3 57
f 4 57 58
f 6 59 60
f 6 60 7
f 6 4 58
f 6 58 59
f 7 60 57
f 7 57 3
f 10 14 61
f 10 61 62
f 11 63 64
f 11 64 15
f 11 10 62
f 11 62 63
f 15 64 61
f 15 61 14
f 18 22 65
f 18 65 66
f 19 67 68
f 19 68 23
f 19 18 66
f 19 66 67
f 23 68 65
f 23 65 22
f 26 30 69
f 26 69 70
f 27 71 72
f 27 72 31
f 27 26 70
f 27 70 71
f 31 72 69
f 31 69 30
f 34 38 73
f 34 73 74
f 35 75 76
f 35 76 39
f 35 34 74
f 35 74 75
f 39 76 73
f 39 73 38
f 42 46 77
f 42 77 78
f 43 79 80
f 43 80 47
f 43 42 78
f 43 78 79
f 47 80 77
f 47 77 46
f 50 54 81
f 50 81 82
f 51 83 84
f 51 84 55
f 51 50 82
f 51 82 83
f 55 84 81
f 55 81 54
f 58 57 85
f 58 85 86
f 59 87 88
f 59 88 60
f 87 86 85
f 87 85 88
f 59 58 86
f 59 86 87
f 57 62 89
f 57 89 85
f 60 88 90
f 60 90 63
f 60 63 62
f 60 62 57
f 88 85 89
f 88 89 90
f 62 61 91
f 62 91 89
f 63 90 92
f 63 92 64
f 90 89 91
f 90 91 92
f 61 66 93
f 61 93 91
f 64 92 94
f 64 94 67
f 64 67 66
f 64 66 61
f 92 91 93
f 92 93 94
f 66 65 95
f 66 95 93
f 67 94 96
f 67 96 68
f 94 93 95
f 94 95 96
f 65 70 97
f 65 97 95
f 68 96 98
f 68 98 71
f 68 71 70
f 68 70 65
f 96 95 97
f 96 97 98
f 70 69 99
f 70 99 97
f 71 98 100
f 71 100 72
f 98 97 99
f 98 99 100
f 69 74 101
f 69 101 99
f 72 100 102
f 72 102 75
f 72 75 74
f 72 74 69
f 100 99 101
f 100 101 102
f 74 73 103
f 74 103 101
f 75 102 104
f 75 104 76
f 102 101 103
f 102 103 104
f 73 78 105
f 73 105 103
f 76 104 106
f 76 106 79
f 76 79 78
f 76 78 73
f 104 103 105
f 104 105 106
f 78 77 107
f 78 107 105
f 79 106 108
f 79 108 80
f 106 105 107
f 106 107 108
f 77 82 109
f 77 109 107
f 80 108 110
f 80 110 83
f 80 83 82
f 80 82 77
f 108 107 109
f 108 109 110
f 82 81 111
f 82 111 109
f 83 110 112
f 83 112 84
f 110 109 111
f 110 111 112
f 84 112 111
f 84 111 81
